<svg width="96" height="96" viewBox="0 0 96 96" fill="none" xmlns="http://www.w3.org/2000/svg">
<path d="M83.2 0H41.6C38.949 0 36.8 2.149 36.8 4.8V23.2112L20.5088 35.7168C18.7632 36.8122 17.5104 38.542 17.0144 40.5424L8.4304 74.88C8.144 76.0232 7.9994 77.1974 8 78.376V96H11.2V78.376C11.1994 77.459 11.3118 76.5456 11.5344 75.656L20.12 41.3152C20.4238 40.1004 21.1926 39.0536 22.2608 38.4C22.3072 38.3712 22.352 38.3392 22.3968 38.3072L36.7968 27.2512V47.3376L30.8656 53.2688L33.128 55.5312L53.8736 34.7888C55.4584 33.2044 58.0276 33.2048 59.612 34.7896C60.3726 35.5504 60.8 36.582 60.8 37.6576V37.9072C60.802 38.8614 60.4658 39.7854 59.8512 40.5152L46.8128 54.9264C46.4902 55.2838 46.3456 55.7674 46.4192 56.2432L46.5408 57.0432C48.1408 67.4592 42.2368 76.504 31.5008 80.0832L32.512 83.1232C37.1914 81.6382 41.3738 78.8976 44.6032 75.2H56.1232L50.0992 83.8048C48.0652 86.721 45.1918 88.9488 41.8608 90.192L34.6352 92.9008C34.0116 93.1362 33.599 93.7334 33.6 94.4V96H36.8V95.5088L42.9872 93.1888C46.9236 91.7184 50.3196 89.0856 52.7248 85.64L60.0336 75.2H83.2C85.851 75.2 88 73.051 88 70.4V4.8C88 2.149 85.851 0 83.2 0ZM84.8 70.4C84.8 71.2836 84.0836 72 83.2 72H46.88C49.594 67.3382 50.5908 61.8734 49.6976 56.5536V56.5088L62.2528 42.6304C63.3796 41.3146 63.9992 39.6396 64 37.9072V37.6576C64.0014 33.6502 60.7538 30.4004 56.7464 30.3992C54.8202 30.3986 52.9726 31.1638 51.6112 32.5264L40 44.1376V4.8C40 3.9164 40.7164 3.2 41.6 3.2H83.2C84.0836 3.2 84.8 3.9164 84.8 4.8V70.4Z" fill="#0057FF"/>
<path d="M78.9022 18.3712C79.6126 17.1678 79.9912 15.7974 79.9998 14.4C79.9998 9.98182 76.418 6.40002 71.9998 6.40002C67.5816 6.40002 63.9998 9.98182 63.9998 14.4C64.0084 15.7974 64.387 17.1678 65.0974 18.3712C62.8652 22.176 64.1402 27.0698 67.945 29.302C69.1744 30.0232 70.5744 30.4024 71.9998 30.4C76.411 30.4072 79.993 26.8372 80.0002 22.426C80.0026 21.0006 79.6234 19.6006 78.9022 18.3712ZM73.5258 26.9624C73.0334 27.1242 72.518 27.2046 71.9998 27.2C69.3736 27.2244 67.225 25.1154 67.2006 22.4892C67.1958 21.97 67.276 21.4534 67.4382 20.96C70.1742 22.8826 73.8222 22.8826 76.5582 20.96C77.3784 23.4548 76.0206 26.1422 73.5258 26.9624ZM71.9998 19.2C69.3488 19.2 67.1998 17.051 67.1998 14.4C67.1998 11.749 69.3488 9.60002 71.9998 9.60002C74.6508 9.60002 76.7998 11.749 76.7998 14.4C76.7998 17.051 74.6508 19.2 71.9998 19.2Z" fill="#0057FF"/>
<path d="M46.3992 9.59998H43.1992V33.6H46.3992V9.59998Z" fill="#0057FF"/>
<path d="M52.7996 11.2H49.5996V27.2H52.7996V11.2Z" fill="#0057FF"/>
<path d="M64.0008 48H60.8008V54.4H64.0008V48Z" fill="#0057FF"/>
<path d="M64.0008 57.6H60.8008V65.6H64.0008V57.6Z" fill="#0057FF"/>
<path d="M75.2 35.2H72V67.1999H75.2V35.2Z" fill="#0057FF"/>
<path d="M81.6004 35.2H78.4004V67.1999H81.6004V35.2Z" fill="#0057FF"/>
</svg>
