<svg width="83" height="83" viewBox="0 0 83 83" fill="none" xmlns="http://www.w3.org/2000/svg">
<g clip-path="url(#clip0)">
<path d="M81.0386 38.836C79.7962 37.6898 78.1061 36.9819 76.4014 36.8932C74.4656 36.7931 72.652 37.4834 71.3013 38.8347L62.0725 47.9667C61.8901 47.6507 61.6818 47.3524 61.4481 47.0757C60.3127 45.7275 58.6523 44.9854 56.7735 44.9854H43.8542C41.4181 44.9854 39.0415 44.6694 36.791 44.0469C30.9234 42.4239 25.318 43.6093 20.5794 47.4772C18.6525 49.0501 17.2467 50.7612 16.3576 52.0086L14.0412 49.7606C13.7366 49.4649 13.3238 49.2971 12.8989 49.2971C12.8951 49.2971 12.8919 49.2971 12.8881 49.2971C12.448 49.3003 12.0225 49.4833 11.7172 49.7999L0.456324 61.4901C0.154901 61.803 -0.00910786 62.2234 0.000390741 62.6578C0.00988934 63.0929 0.191629 63.5057 0.50635 63.8053L19.5523 81.9406C19.8683 82.2414 20.2736 82.3915 20.6782 82.3915C21.1031 82.3915 21.528 82.2262 21.8478 81.8982L33.0036 70.453C33.3082 70.1402 33.4773 69.7128 33.469 69.2758C33.4608 68.8452 33.2803 68.4298 32.9713 68.1297L31.9999 67.1874L34.2232 66.9373C35.5682 66.7809 36.936 66.7017 38.2899 66.7017H57.9463C61.1403 66.7017 63.8531 66.0032 66.01 64.6253C66.0277 64.6139 66.0454 64.6019 66.0631 64.5898C66.8357 64.0529 67.5367 63.4165 68.1459 62.699L81.392 47.1156C83.659 44.449 83.5171 41.1213 81.0386 38.836ZM20.6358 78.4635L3.94738 62.573L12.9375 53.2397L29.5284 69.3398L20.6358 78.4635ZM78.904 45.0006L65.6579 60.5846C65.2374 61.0792 64.7555 61.5186 64.2242 61.891C62.605 62.9162 60.4932 63.4367 57.9463 63.4367H38.2892C36.8106 63.4367 35.3156 63.5235 33.8521 63.6938L28.9648 64.2422L18.7316 54.3117C19.4428 53.2574 20.7504 51.5533 22.6444 50.007C26.5819 46.7926 31.0488 45.8459 35.9203 47.1941C38.4545 47.8951 41.1236 48.251 43.8542 48.251H56.7735C59.0937 48.251 59.713 50.2609 59.713 51.4482C59.713 52.3158 59.4344 53.1415 58.9487 53.714C58.4218 54.3339 57.6727 54.648 56.7222 54.648H45.4759C44.5742 54.648 43.8434 55.3794 43.8434 56.2811C43.8434 57.1828 44.5742 57.9136 45.4759 57.9136H56.7222C58.6207 57.9136 60.295 57.1727 61.4373 55.8277C62.3878 54.7094 62.9299 53.239 62.9755 51.6673L73.6044 41.1498C75.1236 39.6307 77.4969 40.0119 78.8248 41.2366C79.5113 41.8698 80.4345 43.2003 78.904 45.0006Z" fill="#0057FF"/>
<path d="M40.3846 55.8461C40.1788 54.9678 39.3005 54.4238 38.4222 54.629C37.5446 54.8348 36.9993 55.7131 37.2058 56.5914L37.221 56.6579C37.3977 57.4102 38.0683 57.918 38.8091 57.918C38.9326 57.918 39.058 57.9041 39.1834 57.875C40.0617 57.6692 40.6063 56.7902 40.4005 55.9125L40.3846 55.8461Z" fill="#0057FF"/>
<path d="M11.0373 35.0967H26.9468C27.8131 35.0967 28.6148 34.8155 29.267 34.3406C29.9193 34.8155 30.7209 35.0967 31.5872 35.0967H47.4974C48.3636 35.0967 49.1653 34.8155 49.8176 34.3406C50.4698 34.8155 51.2715 35.0967 52.1377 35.0967H68.0473C70.2269 35.0967 71.9999 33.323 71.9999 31.1434V23.7243C71.9999 20.3922 70.1351 17.4977 67.3437 16.0697C68.6963 14.4385 69.5107 12.3463 69.5107 10.0666C69.5107 4.87341 65.2857 0.648438 60.0925 0.648438C54.8993 0.648438 50.6743 4.87341 50.6743 10.0666C50.6743 12.3463 51.4887 14.4391 52.8413 16.0697C51.6349 16.6878 50.6021 17.58 49.8176 18.6622C49.033 17.5794 48.0002 16.6871 46.7932 16.0697C48.1458 14.4391 48.9601 12.3463 48.9601 10.0666C48.9601 4.87341 44.7352 0.648438 39.542 0.648438C34.3488 0.648438 30.1238 4.87341 30.1238 10.0666C30.1238 12.3463 30.9388 14.4391 32.2914 16.0704C31.0844 16.6878 30.0516 17.58 29.267 18.6628C28.4824 17.58 27.4496 16.6878 26.2427 16.0697C27.5953 14.4391 28.4096 12.3463 28.4096 10.0672C28.4096 4.87341 24.1846 0.648438 18.9914 0.648438C13.7989 0.648438 9.57388 4.87341 9.57388 10.0672C9.57388 12.3463 10.3882 14.4391 11.7408 16.0704C8.94951 17.4983 7.08398 20.3935 7.08398 23.725V31.1434C7.08398 33.323 8.85769 35.0967 11.0373 35.0967ZM60.0931 3.91406C63.4854 3.91406 66.2457 6.67372 66.2457 10.0666C66.2457 13.4589 63.4854 16.2192 60.0931 16.2192C56.7002 16.2192 53.9406 13.4595 53.9406 10.0666C53.9399 6.67372 56.7002 3.91406 60.0931 3.91406ZM55.8511 18.4716C57.127 19.1181 58.5677 19.4848 60.0925 19.4848C61.618 19.4848 63.0586 19.1181 64.3339 18.4716C66.8713 18.9136 68.735 21.1002 68.735 23.7243V31.1434C68.735 31.5227 68.4266 31.8311 68.0473 31.8311H52.1377C51.7591 31.8311 51.4507 31.5227 51.4507 31.1434V23.7243C51.45 21.1008 53.3143 18.9136 55.8511 18.4716ZM39.5426 3.91406C42.9349 3.91406 45.6952 6.67372 45.6952 10.0666C45.6952 13.4589 42.9349 16.2192 39.5426 16.2192C36.1497 16.2192 33.39 13.4595 33.39 10.0666C33.39 6.67372 36.1497 3.91406 39.5426 3.91406ZM35.3012 18.4716C36.5765 19.1181 38.0171 19.4848 39.5426 19.4848C41.0681 19.4848 42.5081 19.1181 43.784 18.4716C46.3208 18.9136 48.1851 21.1002 48.1851 23.7243V31.1434C48.1851 31.5227 47.8767 31.8311 47.4974 31.8311H31.5878C31.2085 31.8311 30.9001 31.5227 30.9001 31.1434V23.7243C30.9001 21.1008 32.7644 18.9136 35.3012 18.4716ZM18.9921 3.91406C22.3843 3.91406 25.1446 6.67372 25.1446 10.0666C25.1446 13.4589 22.3843 16.2192 18.9921 16.2192C15.5998 16.2192 12.8395 13.4589 12.8395 10.0666C12.8395 6.67372 15.5998 3.91406 18.9921 3.91406ZM10.3496 23.7243C10.3496 21.1008 12.2139 18.9136 14.7506 18.4716C16.0266 19.1181 17.4666 19.4848 18.9921 19.4848C20.5175 19.4848 21.9575 19.1181 23.2335 18.4716C25.7709 18.9136 27.6345 21.1002 27.6345 23.7243V31.1434C27.6345 31.5227 27.3261 31.8311 26.9468 31.8311H11.0373C10.658 31.8311 10.3496 31.5227 10.3496 31.1434V23.7243Z" fill="#0057FF"/>
</g>
<defs>
<clipPath id="clip0">
<rect width="83" height="83" fill="white"/>
</clipPath>
</defs>
</svg>
