<svg width="83" height="83" viewBox="0 0 83 83" fill="none" xmlns="http://www.w3.org/2000/svg">
<g clip-path="url(#clip0)">
<path d="M62.8454 75.2214C62.3963 74.4475 61.4047 74.1839 60.6298 74.6329L60.5674 74.6689C59.7932 75.1181 59.5298 76.1101 59.9788 76.8845C60.2795 77.4027 60.8234 77.6923 61.3823 77.6923C61.6583 77.6923 61.9384 77.6214 62.1943 77.4729L62.2568 77.437C63.031 76.9877 63.2944 75.9958 62.8454 75.2214Z" fill="#0057FF"/>
<path d="M77.4386 20.7638C71.8974 11.1661 62.9504 4.30094 52.2457 1.43257C41.5413 -1.43579 30.3603 0.0363267 20.7626 5.57739C11.1651 11.1184 4.29973 20.0656 1.43153 30.7702C-1.43668 41.4747 0.0352778 52.6559 5.57634 62.2534C10.5468 70.8625 18.4467 77.4054 27.8208 80.6765C32.2644 82.2269 36.9032 83.0007 41.5348 83.0007C46.5707 83.0007 51.5976 82.0854 56.3492 80.2592C57.1848 79.9381 57.6018 79.0003 57.2805 78.1646C56.9592 77.3289 56.0212 76.9115 55.1859 77.2333C42.5381 82.0945 28.846 79.8857 18.6164 72.2073L20.0688 64.6262L20.7686 64.3989C23.4131 63.5397 24.8656 60.6892 24.0067 58.0446L23.4932 56.4642C23.3743 56.0984 23.375 55.7118 23.4948 55.3464C23.9453 53.973 23.7843 52.4704 23.053 51.2235C22.3218 49.9767 21.0889 49.1025 19.6703 48.8251L16.0115 48.1102L8.95194 42.7427C8.529 42.4211 7.9754 42.3273 7.46994 42.4913L3.3368 43.8339C3.2491 42.3556 3.2478 40.8778 3.33112 39.4078C3.49421 39.5597 3.60039 39.663 3.66572 39.7307C3.74661 39.8655 3.84679 39.989 3.96416 40.096C4.30167 40.4033 4.60741 40.5428 5.24936 40.5428C5.83928 40.5426 6.71256 40.4251 8.15453 40.2121C9.52208 40.0099 10.8825 39.7821 10.896 39.7799C11.4411 39.6886 11.902 39.3255 12.1189 38.8173C12.3358 38.3089 12.2786 37.7251 11.9672 37.2683L9.97955 34.3529L12.8265 32.3172C13.0162 32.1815 13.1744 32.0066 13.2903 31.8043L17.7034 24.1L19.4822 22.1939C21.3 20.2457 21.8187 17.3953 20.8036 14.9319C20.2048 13.4789 19.1588 12.2693 17.8506 11.454C19.2674 10.3402 20.7781 9.31174 22.3837 8.38496C28.2744 4.9839 34.703 3.33574 41.064 3.27268L38.1694 6.90377L27.4353 10.6668C26.9994 10.8195 26.6493 11.1512 26.4732 11.5782L23.4755 18.8452C23.2626 19.3615 23.3302 19.9506 23.6546 20.4052L28.0329 26.5381C27.4058 27.1102 26.7955 27.9435 26.0665 28.978C25.7468 29.4318 25.445 29.8602 25.2363 30.1005C25.0549 30.3096 24.8734 30.5139 24.6934 30.7162C23.7517 31.7756 22.7781 32.8713 22.0864 34.3348C20.5655 37.5541 20.8727 41.2959 22.888 44.1001C24.8367 46.8114 28.0494 48.1896 31.4783 47.7863C32.037 47.7208 32.5578 47.5919 33.0618 47.4671C34.4516 47.1233 34.8919 47.0889 35.3377 47.5062C35.5546 47.7093 35.5745 47.7477 35.5701 48.4365C35.5671 48.8749 35.5637 49.4202 35.7147 50.0428C35.9568 51.039 36.5824 51.7275 37.0849 52.2806C37.3347 52.5554 37.5931 52.8397 37.6727 53.0305C38.1783 54.2421 37.9582 54.9131 37.4757 56.3834C37.4344 56.5092 37.3922 56.6376 37.3499 56.7693C36.617 59.038 37.6387 61.2884 38.54 63.2736C38.8328 63.9183 39.1091 64.5268 39.2902 65.0647C40.7477 69.3896 41.8404 70.3801 42.7172 70.7789C43.1765 70.9877 43.6518 71.0793 44.1319 71.0791C46.4688 71.079 48.9072 68.9093 50.0274 67.5338C50.7309 66.6701 50.9042 65.8052 51.0307 65.1735C51.0937 64.8593 51.1433 64.6113 51.238 64.4492C51.3829 64.2012 51.5536 64.0089 51.7697 63.7654C52.2043 63.276 52.7453 62.6671 53.0956 61.5633C53.3618 60.7249 53.5552 60.5193 54.1957 59.8372C54.3072 59.7187 54.4261 59.5919 54.5536 59.4531C56.7128 57.1037 56.1567 55.309 55.5678 53.4087C55.0722 51.8098 55.939 50.7873 58.0348 48.8356C58.9432 47.9896 59.8825 47.1148 60.6086 46.0637C60.9263 45.6036 61.893 44.2042 61.2948 42.817C60.7084 41.4569 59.2182 41.2283 58.0208 41.0448C57.548 40.9722 56.8334 40.8626 56.6059 40.7139C55.603 40.0582 54.9894 38.6897 54.3959 37.3661C54.2777 37.1026 54.1612 36.8426 54.043 36.5902C53.8322 36.1399 53.6217 35.595 53.3988 35.0182C52.809 33.4918 52.1406 31.7616 51.0028 30.5555C49.98 29.4718 48.0521 28.9498 46.3511 28.4891C45.779 28.3343 45.239 28.1881 44.8828 28.0566C44.5844 27.9464 44.2605 27.9264 43.9515 27.9991C43.1236 28.1931 42.6071 28.4069 42.2236 28.7143C42.1223 28.7955 41.8222 29.0622 41.6465 29.4908C41.053 29.206 40.2369 28.6621 39.7347 28.3273C39.7244 28.3204 39.7138 28.3134 39.7034 28.3064C39.8727 27.6291 39.7195 27.0856 39.559 26.7461C38.6535 24.8306 35.6475 24.9806 35.0545 25.031C34.7176 25.0592 34.2914 25.0743 33.8406 25.0902C33.1325 25.1153 32.3498 25.1435 31.5754 25.2304L31.6153 25.1192C32.2031 23.4814 33.7672 22.381 35.5072 22.381H36.4288C37.3238 22.381 38.0498 21.6551 38.0498 20.7601C38.0498 19.8651 37.3238 19.1391 36.4288 19.1391H35.5072C32.9239 19.1391 30.5582 20.4987 29.2323 22.6387L26.8145 19.2518L29.1932 13.4857L39.6822 9.80844C39.9698 9.70761 40.2233 9.52767 40.4135 9.2892L45.0762 3.44046C56.9903 4.57377 68.205 11.2536 74.6314 22.3844C76.3431 25.3492 77.6093 28.4705 78.4511 31.6629L77.764 32.2757C76.867 33.076 76.3415 34.2239 76.3214 35.4253C76.3212 35.4384 76.3209 35.4514 76.3204 35.4644L75.2009 32.3856C75.034 31.9262 74.7883 31.5048 74.4709 31.1334L72.4739 28.7953C71.6996 27.889 70.5723 27.3694 69.3806 27.3694H66.9362C66.0684 27.3694 65.2754 27.8447 64.8661 28.6094C64.4567 29.3742 64.5015 30.2979 64.9828 31.0196L65.2302 31.391C63.6506 32.7493 61.8236 33.8363 59.8783 34.5694L56.5275 28.151V26.719C56.5275 26.2762 56.3462 25.8522 56.0258 25.5467L53.0084 22.6661C52.8419 22.5073 52.6435 22.3857 52.4264 22.3093L49.7103 21.3548C48.8652 21.0575 47.9402 21.5022 47.6436 22.3466C47.3467 23.1914 47.7908 24.1165 48.6353 24.4134L51.0222 25.2523L53.2856 27.4127V28.5488C53.2856 28.8099 53.3488 29.0674 53.4698 29.299L57.6647 37.3343C58.0419 38.0573 58.8982 38.3877 59.6623 38.105L60.8838 37.6546C63.7216 36.608 66.3518 34.9245 68.4903 32.7863C69.0367 32.2398 69.1216 31.3841 68.6928 30.741L68.6066 30.6114H69.3806C69.6227 30.6114 69.8517 30.717 70.009 30.9011L72.006 33.2392C72.0704 33.3146 72.1201 33.3999 72.1542 33.4934L74.3581 39.5536C74.5474 40.0743 74.9896 40.462 75.5301 40.582C75.6468 40.6078 75.7644 40.6204 75.8812 40.6204C76.3064 40.6204 76.7203 40.4529 77.0273 40.1456L78.0764 39.0966C78.7407 38.4321 79.198 37.5914 79.4165 36.6594C81.0389 49.6614 75.9407 63.1113 65.1647 71.5692C64.4603 72.1218 64.3374 73.1407 64.8904 73.845C65.443 74.5494 66.4617 74.6723 67.1662 74.1193C74.9462 68.0132 80.2909 59.2795 82.216 49.5272C84.159 39.6808 82.4625 29.4655 77.4386 20.7638ZM7.66479 45.8368L14.349 50.919C14.5467 51.0693 14.7759 51.1721 15.0194 51.2196L19.0481 52.0068C19.5623 52.1073 19.9913 52.4114 20.2563 52.8634C20.5214 53.3152 20.5771 53.838 20.414 54.3358C20.0785 55.3592 20.0769 56.4416 20.4097 57.4657L20.9232 59.0459C21.2301 59.9904 20.711 61.0086 19.7667 61.3154L18.1559 61.8389C17.5938 62.0214 17.1759 62.4954 17.0649 63.0755L15.7683 69.8434C12.9179 67.2345 10.4153 64.1512 8.38391 60.6326C5.90558 56.3405 4.35711 51.7623 3.67463 47.1331L7.66479 45.8368ZM17.112 19.9821L15.2051 22.0252C15.12 22.1164 15.0456 22.2173 14.9835 22.3256L10.6533 29.8857L6.80464 32.6377C6.08779 33.1502 5.91174 34.1412 6.40812 34.8694L7.84749 36.9807C7.01782 37.1043 6.27325 37.2061 5.77816 37.26C5.68301 37.1688 5.58347 37.0762 5.48053 36.9806C5.0952 36.6226 4.55975 36.1446 3.76152 35.446C5.07801 27.2979 9.0043 19.6217 15.1794 13.7623C16.3618 14.1347 17.3322 15.0167 17.8062 16.1672C18.3395 17.4611 18.0669 18.9587 17.112 19.9821ZM30.3288 28.8402C31.0518 28.4333 32.73 28.3739 33.9552 28.3304C34.4462 28.3131 34.9102 28.2965 35.3245 28.2618C35.5432 28.2435 35.7861 28.2469 36.0151 28.2648C35.9128 28.5274 35.8796 28.8156 35.924 29.1016C36.002 29.6046 36.3121 30.0415 36.7608 30.2816C37.0649 30.4443 37.4882 30.7265 37.9363 31.0253C39.2032 31.8699 40.6393 32.8272 41.9884 32.9131C43.2152 32.9927 43.8979 32.2935 44.1903 31.9957C44.2137 31.972 44.2357 31.9484 44.259 31.9268C44.4237 31.7926 44.5781 31.6126 44.6928 31.3956C44.9521 31.4697 45.2244 31.5434 45.5036 31.6191C46.4634 31.879 48.25 32.3627 48.6447 32.781C49.3459 33.5242 49.8923 34.939 50.3746 36.187C50.6183 36.8178 50.8485 37.4131 51.1067 37.9651C51.2176 38.2019 51.3267 38.4459 51.4376 38.6929C52.1855 40.3614 53.0334 42.2525 54.832 43.4281C55.6475 43.9613 56.6473 44.1145 57.5295 44.2499C57.6361 44.2662 57.7584 44.285 57.8825 44.3055C57.3589 45.0359 56.6134 45.7301 55.8257 46.4636C53.819 48.3324 51.3215 50.6584 52.4717 54.3689C53.0146 56.121 53.0399 56.3103 52.1669 57.26C52.0479 57.3895 51.937 57.5075 51.8331 57.6181C51.0855 58.414 50.4949 59.0427 50.006 60.5827C49.864 61.03 49.68 61.2371 49.3459 61.6132C49.0787 61.9141 48.7459 62.2889 48.439 62.8141C48.0714 63.4435 47.9498 64.0494 47.8524 64.5362C47.7562 65.0153 47.7018 65.2557 47.5137 65.4865C47.0856 66.0121 46.287 66.7753 45.4672 67.2961C44.7053 67.7799 44.2605 67.846 44.1089 67.8369C43.936 67.6515 43.3094 66.8395 42.3627 64.0296C42.1292 63.3365 41.8054 62.6232 41.4922 61.9334C40.8017 60.4128 40.088 58.8404 40.4352 57.7657C40.4762 57.639 40.5167 57.5151 40.5566 57.394C41.1114 55.7032 41.635 54.1066 40.6649 51.782C40.3695 51.074 39.8993 50.5567 39.4848 50.1002C39.2165 49.805 38.9125 49.4704 38.8657 49.2779C38.8086 49.043 38.8104 48.7718 38.8125 48.4577C38.818 47.6107 38.8264 46.3309 37.554 45.1394C35.7601 43.4602 33.6683 43.9775 32.2839 44.3199C31.8586 44.4249 31.4569 44.5245 31.1009 44.5663C28.8236 44.8331 26.7905 43.974 25.5211 42.2076C24.1933 40.3601 24.0006 37.8738 25.0183 35.7194C25.5109 34.6768 26.2552 33.8392 27.1169 32.8698C27.3052 32.6579 27.4951 32.4443 27.6851 32.2254C28.0013 31.861 28.3491 31.3675 28.717 30.8451C29.1561 30.2217 29.9738 29.061 30.3288 28.8402Z" fill="#0057FF"/>
<path d="M66.4675 55.8108L65.6876 52.8711C65.5173 52.2292 64.9726 51.7561 64.3133 51.6774C63.6532 51.6002 63.013 51.9303 62.6961 52.514C62.5184 52.8415 62.3584 53.1884 62.2037 53.5238C61.9436 54.0881 61.6745 54.6717 61.3945 54.9938C61.2372 55.1747 60.8333 55.3697 60.4429 55.5581C59.5096 56.0084 58.2314 56.6253 57.7431 58.1818C57.44 59.1474 57.5531 59.9112 57.6358 60.4689C57.7073 60.9524 57.7239 61.1201 57.5943 61.4242L57.5781 61.4619C57.0621 62.6727 56.1021 64.9269 57.4483 66.8432C58.4088 68.2107 59.4187 68.5623 60.2035 68.5623C60.3567 68.5628 60.5016 68.5494 60.6357 68.5275C62.2892 68.2572 63.5322 66.5373 64.548 63.1142L66.4547 56.688C66.5395 56.4022 66.5441 56.0987 66.4675 55.8108ZM61.4402 62.1919C60.9224 63.9372 60.4643 64.752 60.1999 65.1131C60.1694 65.0742 60.1364 65.0301 60.101 64.9797C59.7912 64.5385 60.2542 63.4517 60.5606 62.7324L60.577 62.6945C61.0711 61.5347 60.939 60.6441 60.8428 59.9937C60.7811 59.5773 60.759 59.3983 60.8363 59.1524C60.8999 58.9502 61.2797 58.7541 61.852 58.4778C62.1057 58.3553 62.385 58.2206 62.6669 58.0575L61.4402 62.1919Z" fill="#0057FF"/>
<path d="M43.7751 19.2684L43.6657 19.2301C42.8216 18.9344 41.896 19.3784 41.5996 20.2232C41.3033 21.0681 41.748 21.9929 42.5927 22.2893L42.702 22.3275C42.8795 22.3898 43.0604 22.4193 43.2386 22.4193C43.9077 22.4193 44.5341 22.0015 44.7682 21.3345C45.0645 20.4895 44.6199 19.5645 43.7751 19.2684Z" fill="#0057FF"/>
<path d="M32.3846 55.8461C32.1788 54.9678 31.3005 54.4238 30.4222 54.629C29.5446 54.8348 28.9993 55.7131 29.2058 56.5914L29.221 56.6579C29.3977 57.4102 30.0683 57.918 30.8091 57.918C30.9326 57.918 31.058 57.9041 31.1834 57.875C32.0617 57.6692 32.6063 56.7902 32.4005 55.9125L32.3846 55.8461Z" fill="#0057FF"/>
</g>
<defs>
<clipPath id="clip0">
<rect width="83" height="83" fill="white"/>
</clipPath>
</defs>
</svg>
