<svg width="24" height="31" viewBox="0 0 24 31" fill="none" xmlns="http://www.w3.org/2000/svg">
<path d="M6.63658 22.25C6.63658 21.9654 6.38546 21.7143 6.10087 21.7143H5.02944C4.74484 21.7143 4.49372 21.9654 4.49372 22.25V23.3214C4.49372 23.606 4.74484 23.8571 5.02944 23.8571H6.10087C6.38546 23.8571 6.63658 23.606 6.63658 23.3214V22.25ZM6.63658 17.9643C6.63658 17.6797 6.38546 17.4286 6.10087 17.4286H5.02944C4.74484 17.4286 4.49372 17.6797 4.49372 17.9643V19.0357C4.49372 19.3203 4.74484 19.5714 5.02944 19.5714H6.10087C6.38546 19.5714 6.63658 19.3203 6.63658 19.0357V17.9643ZM10.9223 17.9643C10.9223 17.6797 10.6712 17.4286 10.3866 17.4286H9.31515C9.03055 17.4286 8.77944 17.6797 8.77944 17.9643V19.0357C8.77944 19.3203 9.03055 19.5714 9.31515 19.5714H10.3866C10.6712 19.5714 10.9223 19.3203 10.9223 19.0357V17.9643ZM6.63658 13.6786C6.63658 13.394 6.38546 13.1429 6.10087 13.1429H5.02944C4.74484 13.1429 4.49372 13.394 4.49372 13.6786V14.75C4.49372 15.0346 4.74484 15.2857 5.02944 15.2857H6.10087C6.38546 15.2857 6.63658 15.0346 6.63658 14.75V13.6786ZM19.4937 22.25C19.4937 21.9654 19.2426 21.7143 18.958 21.7143H17.8866C17.602 21.7143 17.3509 21.9654 17.3509 22.25V23.3214C17.3509 23.606 17.602 23.8571 17.8866 23.8571H18.958C19.2426 23.8571 19.4937 23.606 19.4937 23.3214V22.25ZM15.208 17.9643C15.208 17.6797 14.9569 17.4286 14.6723 17.4286H13.6009C13.3163 17.4286 13.0652 17.6797 13.0652 17.9643V19.0357C13.0652 19.3203 13.3163 19.5714 13.6009 19.5714H14.6723C14.9569 19.5714 15.208 19.3203 15.208 19.0357V17.9643ZM10.9223 13.6786C10.9223 13.394 10.6712 13.1429 10.3866 13.1429H9.31515C9.03055 13.1429 8.77944 13.394 8.77944 13.6786V14.75C8.77944 15.0346 9.03055 15.2857 9.31515 15.2857H10.3866C10.6712 15.2857 10.9223 15.0346 10.9223 14.75V13.6786ZM6.63658 9.39286C6.63658 9.10826 6.38546 8.85714 6.10087 8.85714H5.02944C4.74484 8.85714 4.49372 9.10826 4.49372 9.39286V10.4643C4.49372 10.7489 4.74484 11 5.02944 11H6.10087C6.38546 11 6.63658 10.7489 6.63658 10.4643V9.39286ZM19.4937 17.9643C19.4937 17.6797 19.2426 17.4286 18.958 17.4286H17.8866C17.602 17.4286 17.3509 17.6797 17.3509 17.9643V19.0357C17.3509 19.3203 17.602 19.5714 17.8866 19.5714H18.958C19.2426 19.5714 19.4937 19.3203 19.4937 19.0357V17.9643ZM15.208 13.6786C15.208 13.394 14.9569 13.1429 14.6723 13.1429H13.6009C13.3163 13.1429 13.0652 13.394 13.0652 13.6786V14.75C13.0652 15.0346 13.3163 15.2857 13.6009 15.2857H14.6723C14.9569 15.2857 15.208 15.0346 15.208 14.75V13.6786ZM10.9223 9.39286C10.9223 9.10826 10.6712 8.85714 10.3866 8.85714H9.31515C9.03055 8.85714 8.77944 9.10826 8.77944 9.39286V10.4643C8.77944 10.7489 9.03055 11 9.31515 11H10.3866C10.6712 11 10.9223 10.7489 10.9223 10.4643V9.39286ZM6.63658 5.10714C6.63658 4.82254 6.38546 4.57143 6.10087 4.57143H5.02944C4.74484 4.57143 4.49372 4.82254 4.49372 5.10714V6.17857C4.49372 6.46317 4.74484 6.71428 5.02944 6.71428H6.10087C6.38546 6.71428 6.63658 6.46317 6.63658 6.17857V5.10714ZM19.4937 13.6786C19.4937 13.394 19.2426 13.1429 18.958 13.1429H17.8866C17.602 13.1429 17.3509 13.394 17.3509 13.6786V14.75C17.3509 15.0346 17.602 15.2857 17.8866 15.2857H18.958C19.2426 15.2857 19.4937 15.0346 19.4937 14.75V13.6786ZM15.208 9.39286C15.208 9.10826 14.9569 8.85714 14.6723 8.85714H13.6009C13.3163 8.85714 13.0652 9.10826 13.0652 9.39286V10.4643C13.0652 10.7489 13.3163 11 13.6009 11H14.6723C14.9569 11 15.208 10.7489 15.208 10.4643V9.39286ZM10.9223 5.10714C10.9223 4.82254 10.6712 4.57143 10.3866 4.57143H9.31515C9.03055 4.57143 8.77944 4.82254 8.77944 5.10714V6.17857C8.77944 6.46317 9.03055 6.71428 9.31515 6.71428H10.3866C10.6712 6.71428 10.9223 6.46317 10.9223 6.17857V5.10714ZM19.4937 9.39286C19.4937 9.10826 19.2426 8.85714 18.958 8.85714H17.8866C17.602 8.85714 17.3509 9.10826 17.3509 9.39286V10.4643C17.3509 10.7489 17.602 11 17.8866 11H18.958C19.2426 11 19.4937 10.7489 19.4937 10.4643V9.39286ZM15.208 5.10714C15.208 4.82254 14.9569 4.57143 14.6723 4.57143H13.6009C13.3163 4.57143 13.0652 4.82254 13.0652 5.10714V6.17857C13.0652 6.46317 13.3163 6.71428 13.6009 6.71428H14.6723C14.9569 6.71428 15.208 6.46317 15.208 6.17857V5.10714ZM19.4937 5.10714C19.4937 4.82254 19.2426 4.57143 18.958 4.57143H17.8866C17.602 4.57143 17.3509 4.82254 17.3509 5.10714V6.17857C17.3509 6.46317 17.602 6.71428 17.8866 6.71428H18.958C19.2426 6.71428 19.4937 6.46317 19.4937 6.17857V5.10714ZM15.208 28.1429V24.3929C15.208 24.1083 14.9569 23.8571 14.6723 23.8571H9.31515C9.03055 23.8571 8.77944 24.1083 8.77944 24.3929V28.1429H2.35087V2.42857H21.6366V28.1429H15.208ZM23.7794 1.35714C23.7794 0.771205 23.2939 0.285712 22.708 0.285712H1.27944C0.693499 0.285712 0.208008 0.771205 0.208008 1.35714V29.2143C0.208008 29.8002 0.693499 30.2857 1.27944 30.2857H22.708C23.2939 30.2857 23.7794 29.8002 23.7794 29.2143V1.35714Z" fill="#ffffff"/>
</svg>
