<svg width="31" height="38" viewBox="0 0 31 38" fill="none" xmlns="http://www.w3.org/2000/svg">
<path d="M20.4856 0.219468C20.3113 0.0359499 20.0724 -0.0742188 19.8248 -0.0742188H5.00106C2.26569 -0.0742188 0.0078125 2.17467 0.0078125 4.90975V32.9416C0.0078125 35.677 2.26569 37.9258 5.00106 37.9258H25.1208C27.8561 37.9258 30.114 35.677 30.114 32.9416V10.6832C30.114 10.4446 30.0038 10.2152 29.8479 10.0407L20.4856 0.219468ZM20.7517 3.1659L27.0209 9.74703H22.9455C21.7339 9.74703 20.7517 8.77406 20.7517 7.5625V3.1659ZM25.1208 36.0901H5.00106C3.28475 36.0901 1.84357 34.6675 1.84357 32.9416V4.90975C1.84357 3.19344 3.27547 1.76154 5.00106 1.76154H18.9159V7.5625C18.9159 9.79283 20.7152 11.5828 22.9455 11.5828H28.2783V32.9416C28.2783 34.6675 26.8463 36.0901 25.1208 36.0901Z" fill="#444E72" fill-opacity="0.95"/>
<path d="M22.614 29.7568H7.50577C7.00102 29.7568 6.58789 30.1697 6.58789 30.6747C6.58789 31.1795 7.00102 31.5926 7.50577 31.5926H22.6232C23.128 31.5926 23.5411 31.1795 23.5411 30.6747C23.5411 30.1697 23.128 29.7568 22.614 29.7568Z" fill="#444E72" fill-opacity="0.95"/>
<path d="M14.3912 26.4617C14.5657 26.6452 14.8043 26.7554 15.0612 26.7554C15.3183 26.7554 15.5569 26.6452 15.7312 26.4617L21.11 20.6883C21.4588 20.3209 21.4312 19.7336 21.0642 19.3941C20.6969 19.0453 20.1095 19.0726 19.77 19.4399L15.9791 23.506V13.4829C15.9791 12.9779 15.5659 12.5651 15.0612 12.5651C14.5564 12.5651 14.1433 12.9779 14.1433 13.4829V23.506L10.3616 19.4399C10.0128 19.0728 9.43446 19.0453 9.06743 19.3941C8.70039 19.7428 8.67285 20.3212 9.02162 20.6883L14.3912 26.4617Z" fill="#444E72" fill-opacity="0.95"/>
</svg>
