<svg width="22" height="15" viewBox="0 0 22 15" fill="none" xmlns="http://www.w3.org/2000/svg">
<path d="M20.4286 7.92857C18.3292 11.1696 14.9408 13.4286 11 13.4286C7.05915 13.4286 3.67076 11.1696 1.57143 7.92857C2.73772 6.12388 4.33371 4.57701 6.24888 3.59487C5.75781 4.42969 5.5 5.38728 5.5 6.35714C5.5 9.38951 7.96763 11.8571 11 11.8571C14.0324 11.8571 16.5 9.38951 16.5 6.35714C16.5 5.38728 16.2422 4.42969 15.7511 3.59487C17.6663 4.57701 19.2623 6.12388 20.4286 7.92857ZM11.5893 3.21428C11.5893 3.53348 11.3192 3.80357 11 3.80357C9.60045 3.80357 8.44643 4.95759 8.44643 6.35714C8.44643 6.67634 8.17634 6.94643 7.85714 6.94643C7.53795 6.94643 7.26786 6.67634 7.26786 6.35714C7.26786 4.30692 8.94978 2.625 11 2.625C11.3192 2.625 11.5893 2.89509 11.5893 3.21428ZM22 7.92857C22 7.62165 21.9018 7.33929 21.7545 7.08147C19.4955 3.37388 15.3583 0.857142 11 0.857142C6.64174 0.857142 2.50446 3.37388 0.245536 7.08147C0.0982143 7.33929 0 7.62165 0 7.92857C0 8.23549 0.0982143 8.51786 0.245536 8.77567C2.50446 12.4833 6.64174 15 11 15C15.3583 15 19.4955 12.4955 21.7545 8.77567C21.9018 8.51786 22 8.23549 22 7.92857Z" fill="#16BA40"/>
</svg>
