<svg width="13" height="13" viewBox="0 0 13 13" fill="none" xmlns="http://www.w3.org/2000/svg">
<path d="M12.5714 5.85714C12.5714 5.38393 12.1875 5 11.7143 5H8V1.28571C8 0.812499 7.61607 0.428571 7.14286 0.428571H5.42857C4.95536 0.428571 4.57143 0.812499 4.57143 1.28571V5H0.857143C0.383929 5 0 5.38393 0 5.85714V7.57143C0 8.04464 0.383929 8.42857 0.857143 8.42857H4.57143V12.1429C4.57143 12.6161 4.95536 13 5.42857 13H7.14286C7.61607 13 8 12.6161 8 12.1429V8.42857H11.7143C12.1875 8.42857 12.5714 8.04464 12.5714 7.57143V5.85714Z" fill="#A7A6AC"/>
</svg>
