<svg width="13" height="21" viewBox="0 0 13 21" fill="none" xmlns="http://www.w3.org/2000/svg">
<path d="M12.596 2.07143C12.596 1.89062 12.5156 1.72991 12.3951 1.60938L11.3906 0.604909C11.2701 0.484375 11.0893 0.404016 10.9286 0.404016C10.7679 0.404016 10.5871 0.484375 10.4665 0.604909L1.10491 9.96652C0.984375 10.0871 0.904018 10.2679 0.904018 10.4286C0.904018 10.5893 0.984375 10.7701 1.10491 10.8906L10.4665 20.2522C10.5871 20.3728 10.7679 20.4531 10.9286 20.4531C11.0893 20.4531 11.2701 20.3728 11.3906 20.2522L12.3951 19.2478C12.5156 19.1272 12.596 18.9464 12.596 18.7857C12.596 18.625 12.5156 18.4442 12.3951 18.3237L4.5 10.4286L12.3951 2.53348C12.5156 2.41295 12.596 2.23214 12.596 2.07143Z" fill="white"/>
</svg>
