<svg width="24" height="24" viewBox="0 0 24 24" fill="none" xmlns="http://www.w3.org/2000/svg">
<path d="M18 12C18 11.875 17.9531 11.7344 17.8594 11.6406L12.875 6.65625C12.7656 6.5625 12.6406 6.5 12.5 6.5C12.2188 6.5 12 6.71875 12 7V10H6.5C6.23438 10 6 10.2344 6 10.5V13.5C6 13.7656 6.23438 14 6.5 14H12V17C12 17.2656 12.2344 17.5 12.5 17.5C12.625 17.5 12.7656 17.4531 12.8594 17.3594L17.8594 12.3594C17.9531 12.2656 18 12.125 18 12ZM20.5 12C20.5 16.6875 16.6875 20.5 12 20.5C7.3125 20.5 3.5 16.6875 3.5 12C3.5 7.3125 7.3125 3.5 12 3.5C16.6875 3.5 20.5 7.3125 20.5 12ZM24 12C24 5.375 18.625 -1.19209e-06 12 -1.19209e-06C5.375 -1.19209e-06 0 5.375 0 12C0 18.625 5.375 24 12 24C18.625 24 24 18.625 24 12Z" fill="#0057FF"/>
</svg>
