<svg width="10" height="6" viewBox="0 0 10 6" fill="none" xmlns="http://www.w3.org/2000/svg">
<path d="M9.59822 0.857142C9.59822 0.785714 9.5625 0.705357 9.50893 0.651785L9.0625 0.205357C9.00893 0.151785 8.92857 0.116071 8.85714 0.116071C8.78572 0.116071 8.70536 0.151785 8.65179 0.205357L5.14286 3.71429L1.63393 0.205357C1.58036 0.151785 1.5 0.116071 1.42857 0.116071C1.34821 0.116071 1.27679 0.151785 1.22321 0.205357L0.776786 0.651785C0.723214 0.705357 0.6875 0.785714 0.6875 0.857142C0.6875 0.928571 0.723214 1.00893 0.776786 1.0625L4.9375 5.22321C4.99107 5.27679 5.07143 5.3125 5.14286 5.3125C5.21429 5.3125 5.29464 5.27679 5.34821 5.22321L9.50893 1.0625C9.5625 1.00893 9.59822 0.928571 9.59822 0.857142Z" fill="#ffffff"/>
</svg>
