<svg width="13" height="21" viewBox="0 0 13 21" fill="none" xmlns="http://www.w3.org/2000/svg">
<path d="M0.404017 2.07143C0.404017 1.89062 0.484374 1.72991 0.60491 1.60938L1.60938 0.604909C1.72991 0.484375 1.91071 0.404016 2.07143 0.404016C2.23214 0.404016 2.41295 0.484375 2.53348 0.604909L11.8951 9.96652C12.0156 10.0871 12.096 10.2679 12.096 10.4286C12.096 10.5893 12.0156 10.7701 11.8951 10.8906L2.53348 20.2522C2.41295 20.3728 2.23214 20.4531 2.07143 20.4531C1.91071 20.4531 1.72991 20.3728 1.60938 20.2522L0.60491 19.2478C0.484374 19.1272 0.404017 18.9464 0.404017 18.7857C0.404017 18.625 0.484374 18.4442 0.60491 18.3237L8.5 10.4286L0.60491 2.53348C0.484374 2.41295 0.404017 2.23214 0.404017 2.07143Z" fill="white"/>
</svg>
